<svg preserveAspectRatio="xMidYMid meet" data-bbox="10.156 5.502 179.644 188.998" viewBox="10.156 5.502 179.644 188.998" height="200" width="200" xmlns="http://www.w3.org/2000/svg" data-type="color" role="presentation" aria-hidden="true"><defs><style>#comp-iu44l5vo svg [data-color="2"] {fill: #66D1CA;}</style></defs>
    <g>
        <path d="M35.406 183.759s-23.734 6.063-24.6 6.756-.866 2.252 0 2.599 22.384-.333 27.892-1.559c1.693-.377 1.559 2.945 1.559 2.945l11.78-.866s5.024-1.299 2.599-8.619c-2.425-7.319-19.23-1.256-19.23-1.256z" fill="#20167F" data-color="1"></path>
        <path d="M115.328 179.485s-7.916 3.638-10.83 4.331c-2.914.693-11.576 3.186-12.442 3.845s-.866 2.305.693 2.522 13.166.303 15.938 0c2.772-.303 14.38-2.522 14.38-2.522l1.039 1.525s9 .173 10.737-.693c1.737-.866.13-8.142-3.634-11.261-3.764-3.117-15.881 2.253-15.881 2.253z" fill="#20167F" data-color="1"></path>
        <path d="M108.687 135.136c1.524 5.126 24.544 44.438 24.544 44.438l-18.8.318c1.882-.032-25.493-39.63-25.493-39.63s18.225-10.253 19.749-5.126z" fill="#FBCB0C" data-color="2"></path>
        <path d="M86.376 116.049c-2.203-1.875-1.423-1.92-1.553-3.392-.13-1.472 4.371-14.252 6.083-18.711 1.712-4.459 22.353-39.894 24.506-43.355 2.153-3.462 14.237-18.663 18.784-18.533 4.548.13 6.886 2.988 9.615 4.937 2.729 1.949 9.485 5.494 9.485 5.494s-1.429-6.923-1.819-8.352c-.39-1.429-1.169-7.796-1.169-7.796l4.535-2.506s15.214 28.233 19.242 40.056c4.028 11.824 4.028 12.205 3.378 13.573-.65 1.369-1.249 4.019-2.729 4.097-2.469.13-9.485-5.197-11.824-7.926-2.339-2.729-10.699-13.448-10.699-13.448s2.773 14.218 2.903 17.276c.13 3.058.26 6.006-.13 8.365s-8.316 27.566-8.316 27.566l-38.979 17.541s-13.643 11.824-15.202 13.773c-1.559 1.949-36.9 39.369-37.29 40.798-.39 1.429-22.868.78-23.777-.78-.91-1.559 37.703-44.436 40.745-47.165s27.858-26.896 27.858-26.896 17.108-16.32 25.065-24.837c.558-.597-2.564-8.365-2.564-8.365-1.957-.933-14.67 26.991-30.427 38.009-2.193 1.536-5.721.577-5.721.577z" fill="#FBCB0C" data-color="2"></path>
        <path d="M77.482 53.431s2.664 2.794 4.158 2.923c1.494.13 1.104 9.225.455 10.265-.65 1.039-3.898 4.872-3.898 4.872s12.031 4.671 15.994.968C98.154 68.756 91.385 61 91.385 61s-1.884 1.814-2.404 1.59-1.884-7.276-1.494-7.406c.39-.13 1.624-.845 2.014-1.299s1.364-2.144 1.689-2.923c.325-.78 1.494-4.807 1.624-6.367s.13-3.638 0-4.548-.715-5.912-.715-5.912h-18.32l-3.573 13.773 2.664 4.678 4.612.845z" fill="#E6916D" data-color="3"></path>
        <path d="M78.457 54.146c-.866.606-2.425.693-3.378.433s-3.725-1.819-3.985-2.079c-.26-.26-3.811-4.418-4.764-6.41-.953-1.992-1.88-7.206-1.126-10.914.78-3.833 2.945-5.37 2.945-5.37s-.087-3.725 2.339-5.977c2.425-2.252 4.591-1.992 4.591-1.992s5.398-10.912 9.788-12.3c2.945-.931 3.811.606 3.811.606s3.811-3.985 8.749-3.032 0 9.702 0 9.702 1.704 0 2.194 1.559c.201.638.924 2.317-1.805 5.176-1.623 1.753-5.497 6.285-5.497 6.285s6.06-4.184 5.973 2.052c.043 5.046-5.294 5.651-7.276 5.89-1.982.239-6.991-.005-8.685-.974-3.355-.52-7.188 11.694-7.188 11.694s-1.256-1.689-2.858-.195 2.518 6.187 4.288 3.638c.403-.015 1.884 2.208 1.884 2.208z" fill="#EC3C2D" data-color="4"></path>
        <path d="M82.393 46.923s1.521-2.133 2.69-2.393c1.169-.26 1.689.39 1.689.39s.974-1.104 1.624-1.234c.65-.13 2.014.698 2.014.698s-1.039.926-3.443 1.77c-2.404.845-4.574.769-4.574.769z" fill="#EC3C2D" data-color="4"></path>
        <path d="M82.925 49.591c.923 1.242 2.418 1.891 3.782 1.631s2.339-.715 2.794-1.494c.455-.78.303-2.227.303-2.227s-.757 1.395-2.771 1.876c-2.015.481-3.367-.09-4.108.214z" fill="#EC3C2D" data-color="4"></path>
        <path d="M79.691 47.779s3.703 3.053 6.821 2.014c3.118-1.039 4.872-4.223 4.872-5.717l-11.693 3.703z" fill="#FFFFFF" data-color="5"></path>
        <path d="M143.552 20.429c-.065.26-1.884 2.144-2.534 2.599-.65.455-10.784 6.886-12.603 8.51-1.819 1.624-9.105 8.339-10.577 9.833-1.473 1.494 1.937 5.671 1.937 5.671s15.787-10.437 17.801-12.321c2.014-1.884 6.691-8.121 7.601-8.445s3.508-.585 4.418-1.754c.908-1.17-6.043-4.093-6.043-4.093z" fill="#E6916D" data-color="3"></path>
        <path d="M141.538 20.429c.39-.78 1.429-1.754 2.274-1.559.845.195 2.599.26 2.599.26s-2.534-5.262-1.884-7.081 1.949-.715 2.664-.845c.715-.13 2.599-.585 3.118.52s4.548 5.457 4.548 5.457-.136 5.692-.005 6.667c.005.041-4.243 2.493-4.542 2.493s-2.469-2.664-4.028-3.248c-1.559-.585-3.788-1.498-4.158-1.689-.586-.304-.586-.975-.586-.975z" fill="#DA6939" data-color="6"></path>
        <path d="M144.072 17.521c.39-.666 1.689-.926 2.664-.341.974.585 2.274.78 2.469 1.299.195.52.282.931 0 1.299-.282.368-1.927-.065-2.523 0-.596.065-2.35-.325-2.609-.78s-.001-1.477-.001-1.477z" fill="#E6916D" data-color="3"></path>
        <path d="M149.676 10.099c-.995-.217-1.251 2.014-.862 3.118.39 1.104.65 2.209 1.299 2.274.65.065.974-.065 1.169-.325.195-.26.845-1.819.585-2.794-.259-.974-.606-1.927-2.191-2.273z" fill="#E6916D" data-color="3"></path>
        <path d="M152.972 11.788c-.614-.055-1.056 1.011-1.056 1.011s-.438 3.537-.438 4.057.13 1.624.747 1.884c.617.26 1.332.007 1.462-.419s0 1.003.91 1.068c.91.065 1.754-.974 1.819-2.923.065-1.949-.13-2.144-.91-2.469-.78-.325-1.104.455-1.104.455s.09-2.528-1.43-2.664z" fill="#E6916D" data-color="3"></path>
        <path d="M132.157 120.237s14.313 21.309 15.864 24.254 20.434 33.089 20.434 33.089 20.616 9.875 21.309 11.261-8.662 1.732-11.434 1.039c-2.772-.693-6.93-2.079-6.93-2.079s-1.559 1.386-2.945 1.732c-1.386.346-4.158.173-4.504-.346-.346-.52-.693-8.316-.693-8.489 0-.173-12.479-16.115-40.191-53.249-3.118-9.182 8.271-7.905 8.271-7.905l.819.693z" fill="#FE7F94" data-color="7"></path>
        <path d="M108.35 120.757c2.936-2.425 12.291 6.41 12.291 6.41s17.324 27.199 17.497 29.797c.173 2.599-.139 4.851-5.44 4.851s-15.535-2.252-21.505-3.811c-5.97-1.559-17.997-5.024-17.997-5.024s-2.931 5.197-6.366 8.835-7.871 8.291-8.874 7.796c-2.103-1.039 4.312-12.993 7.431-18.97 0 0-.953-.78-1.126-1.299-.173-.52 1.646-3.292 2.858-3.638s2.709.564 2.709.564.459-.601 1.882 0c.832.351 1.343.645 1.343.645s22.275 2.429 29.234 4.335c0 0-12.82-17.064-14.596-20.312-1.776-3.25.659-10.179.659-10.179z" fill="#FE7F94" data-color="7"></path>
        <path d="M189.764 188.84c-.193-.386-1.932-1.431-4.341-2.737-1.115.994-3.328 1.308-4.798 1.308-1.732 0-4.244-.693-4.418-1.473-.113-.509 1.433-2.197 2.521-3.309-.811-.409-1.619-.812-2.405-1.203-.965.74-2.18 1.994-2.801 3.906-3.488-.338-7.451-1.26-10.132-1.936.132 2.363.347 5.469.561 5.79.346.52 3.118.693 4.504.346 1.386-.346 2.945-1.732 2.945-1.732s4.158 1.386 6.93 2.079c2.772.694 12.127.347 11.434-1.039z" fill="#DA6939" data-color="6"></path>
        <path d="M90.35 157.425c-.867-1.7-3.491-1.847-3.491-1.847s-.173-.52 1.819-4.591c1.284-2.623 2.854-3.735 4.041-4.252a15.693 15.693 0 0 0-1.01-.467c-1.423-.601-1.882 0-1.882 0s-1.496-.911-2.709-.564c-1.213.346-3.032 3.118-2.858 3.638.173.52 1.126 1.299 1.126 1.299-3.118 5.977-9.534 17.93-7.431 18.97.748.37 3.407-2.126 6.135-4.928l-1.11-1.222s2.059-5.024 2.838-5.457c.577-.321 2.103.972 2.857 1.665a48.077 48.077 0 0 0 1.675-2.244z" fill="#DA6939" data-color="6"></path>
        <path d="M95.576 106.509S84.662 85.2 83.536 86.5c-1.126 1.299-3.551 10.135-3.551 10.135l-7.818 16.458s.888-18.104.715-21.482.087-13.513.346-14.812c.26-1.299.953-2.079.953-2.079l4.504-3.638 13.599-.693-1.537-8.845s9.939-8.479 10.892-9.172 16.198-11.001 16.198-11.001l1.646 5.024s-7.969 8.749-10.654 10.914c-2.685 2.166-10.741 10.221-10.741 10.221s8.489 3.118 9.615 3.898c1.126.78-.26 10.481-.26 10.481s1.906 8.402 4.331 9.182" fill="#EC3C2D" data-color="4"></path>
        <path d="M120.467 92.345c4.678 1.732 21.343 7.449 25.397 10.914s6.999 4.504 8.385 4.504c1.386 0-3.118 15.245-10.048 19.057s-14.033 3.465-19.403 8.316c-5.37 4.851-7.232 10.221-15.916 10.914s-17.459-4.757-24.795-6.063c-1.106-.197 5.319-5.197 7.298-10.048s2.923-22.521 2.923-22.521l19.923-17.151 6.236 2.078z" fill="#EC3C2D" data-color="4"></path>
        <path d="M78.383 81.751l-.297-2.384c-.069-.556-.339-1.024-.85-1.207-.482-.934-2.101-.997-2.412.227a19.686 19.686 0 0 0-.606 4.492c-.006.307.1.562.266.764.113.296.329.543.676.69.539.227 1.362.062 1.622-.532.045-.104.084-.208.128-.312l.003.001.002-.015c.068-.161.135-.322.198-.483.695.031 1.376-.385 1.27-1.241z" fill="#FE7F94" data-color="7"></path>
        <path d="M90.906 82.273c.019-.702-.611-1.299-1.299-1.299-.26 0-.494.078-.691.207-.068-.007-.136-.015-.21-.014a1.324 1.324 0 0 0-.974.431c-.508.18-.964.665-.896 1.221l.207 1.709c.084.697.537 1.299 1.299 1.299.186 0 .371-.05.543-.132.048.011.093.025.145.031.668.079 1.204-.305 1.426-.931.26-.734.395-1.505.436-2.282.001-.014.005-.027.006-.042l.008-.198z" fill="#FE7F94" data-color="7"></path>
        <path d="M111.944 98.697a1.678 1.678 0 0 0-.371-.219l-.397-.793c-.377-.378-1.029-.448-1.542-.209-.449.098-.847.404-.958.899-.189.841-.44 2.311-.268 3.546a2.28 2.28 0 0 0 .938 1.948c.024.018.054.027.08.043.435.633 1.4.737 1.987.182.143-.135.271-.279.392-.429a1.23 1.23 0 0 0 .433-.644c.27-.493.445-1.036.507-1.614.095-.879-.046-2.128-.801-2.71z" fill="#FE7F94" data-color="7"></path>
        <path d="M106.314 50.808c-.002-.003-.003-.007-.006-.01-.562-.753-1.714-.918-2.244 0l-.013.022a1.433 1.433 0 0 0-.569.507l-1.738 2.585c-.37.55-.239 1.083.109 1.445.121.466.505.826.951.96.469.873 1.987.981 2.409-.238l.495-1.43c.15-.341.315-.674.514-.991.181-.105.344-.264.469-.501l.26-.496c.371-.713-.037-1.521-.637-1.853z" fill="#FE7F94" data-color="7"></path>
        <path d="M106.281 111.524c.047-.351-.124-.674-.384-.914-.086-.449-.414-.868-.82-1.083a1.373 1.373 0 0 0-.186-.109c-.198-.128-.423-.203-.65-.172-.036.005-.065.017-.1.022-.178.009-.35.047-.505.12-1.212.413-1.738 1.508-2.127 2.793-.364 1.201-1.05 3.252.031 4.256.119.176.265.335.453.465.29.202.574.298.847.317a1.373 1.373 0 0 0 1.521-.533c1.889-.248 1.74-3.812 1.92-5.162z" fill="#FE7F94" data-color="7"></path>
        <path d="M103.29 133.733c-.971-1.234-2.368-.729-3.344.206a5.696 5.696 0 0 0-1.649 3.115c-.197 1.159-.003 2.736 1.333 3.13.979.289 1.871-.255 2.569-1.117.515-.436.935-1.05 1.206-1.556.625-1.172.745-2.685-.115-3.778z" fill="#FE7F94" data-color="7"></path>
        <path d="M117.171 118.588c-.657-.427-1.351-.328-1.929.032-.348.066-.66.228-.934.456-.724.495-1.312 1.292-1.509 2.134-.166.711-.157 1.561.098 2.294.041.206.092.41.161.61.222.644 1.015 1.187 1.698.889.581-.032 1.162-.358 1.592-.844a4.602 4.602 0 0 0 1.045-2.067c.535-1.098 1.03-2.689-.222-3.504z" fill="#FE7F94" data-color="7"></path>
        <path d="M132.119 110.5c-.043-.536-.453-1.03-.943-1.231.006-.159.015-.316.017-.476.012-1.34-1.736-1.7-2.421-.656a8.358 8.358 0 0 0-1.347 5.192c-.028.373-.042.75-.028 1.131.034.966 1.287 1.642 2.031 1.14.261.131.556.181.849.068 1.835-.703 1.978-3.481 1.842-5.168z" fill="#FE7F94" data-color="7"></path>
        <path d="M136.097 122.352c-2.114-1.451-3.498 2.124-3.393 3.694.028.419.251.783.56 1.019.037.27.079.521.119.737.207 1.129 1.849 1.223 2.375.31.505-.877.997-1.807 1.162-2.816.161-.987.082-2.324-.823-2.944z" fill="#FE7F94" data-color="7"></path>
        <path d="M147.15 110.941c.818-1.079 1.109-2.531.663-3.835-.375-1.097-1.6-2.021-2.608-1.764-.403-.319-1.026-.391-1.467-.112-.02.012-.033.028-.053.041a1.712 1.712 0 0 0-.887.888c-.463 1.04-.004 2.305.262 3.341.24.934.436 2.394 1.343 2.946.39.237.8.275 1.182.183.569.068 1.145-.198 1.287-.921.008-.04.014-.082.021-.122l.008-.013a3.18 3.18 0 0 0 .249-.632z" fill="#FE7F94" data-color="7"></path>
        <path d="M111.315 46.697c-.068 1.01.962 1.762 1.888 1.637a1.69 1.69 0 0 0 1.385-1.194h.001l.003-.015c.03-.108.05-.219.057-.332.035-.213.066-.429.091-.647.249.054.509.053.761-.016.928-.255 1.276-1.132 1.139-2.006a4.868 4.868 0 0 0-.557-1.567l-4.77 3.229c-.018.29.021.629.002.911z" fill="#FE7F94" data-color="7"></path>
        <path d="M98.856 23.872c.39 1.689 1.966 6.546 6.824 9.554 0 0 1.18-1.46 1.887-2.673.707-1.213 1.674-3.437 1.674-3.437s2.806 4.185.591 8.813c2.855 1.996 8.124-.694 8.644-.954s5.977 6.209 5.717 8.497c-.26 2.288 7.146-8.107 7.146-8.107l-8.316-6.626-12.994-11.434-11.173 6.367z" fill="#DA6939" data-color="6"></path>
        <path d="M108.6 23.722s-1.126-2.969.282-3.099c1.407-.13 2.837.91 3.356 2.079.52 1.169.949 2.755.65 3.638-.451 1.331 3.196 4.226 5.587 2.599.431-.294 2.286 1.233 4.807.296 1.822-.677 2.784-3.255 1.614-3.986 0 0 3.583-1.529 2.673-4.636s-2.68-4.429-4.158-4.926c-.324-.109 1.616-3.873-2.405-6.537-3.299-2.186-4.662-1.151-6.69-.609-.316.085-1.689-3.508-6.366-2.988s-4.418 4.418-4.418 4.418-1.21-.499-2.318.411c-1.108.91-1.357 2.708-1.357 2.708s-3.168-.65-4.034.91 0 3.443 0 3.443-2.393 2.272-1.386 5.522c1.007 3.25 2.079 2.729 3.768 2.599s3.529-1.495 5.131-4.081c.406-.656 5.264 2.239 5.264 2.239z" fill="#20167F" data-color="1"></path>
        <path d="M86.376 116.049s3.254.464 5.723-.576c2.469-1.039 11.072-10.176 12.35-11.408 3.173-3.062 6.256-6.243 9.012-9.69 5.601-7.003 9.972-14.978 14.54-22.668 4.794-8.069 9.472-16.217 13.673-24.613 1.445-2.887 2.881-5.804 4.19-8.769a35.144 35.144 0 0 1-2.053-1.331c-2.729-1.949-5.067-4.807-9.615-4.937-4.548-.13-14.478 11.61-16.631 15.072-2.153 3.462-16.043 32.472-26.659 46.817-1.712 4.459-6.213 17.239-6.083 18.711.13 1.472-.65 1.517 1.553 3.392z" fill="#FBCB0C" data-color="2"></path>
        <path d="M72.999 114.52c-2.425-1.863 1.218-9.182 1.218-9.182s4.412-7.623 6.058-9.701c3.205-4.937 21.271-22.735 24.222-25.593 1.56-5.356 2.577-6.72 3.128-8.022.551-1.302.338-1.986 1.219-2.246s-.331-1.473.448-2.079 2.784-1.299 3.731-.953c.947.346 2.838.761 3.271.935.433.173.676 1.402-.676 1.677 0 0 1.338.198 1.777.626.426.325.31.834-.045 1.18-.355.347-1.412.622-1.412.622s2.433.225 2.535.851c-.086 2.604-3.811.78-5.278 1.819-1.144.811-.006 4.331-1.739 5.717-1.732 1.386-3.032 2.772-3.032 2.772s-1.636 2.795-2.945 4.522c-1.309 1.727-15.203 19.409-18.653 23.717-4.991 6.235-11.401 15.201-13.827 13.338z" fill="#E6916D" data-color="3"></path>
    </g>
</svg>