<svg preserveAspectRatio="xMidYMid meet" data-bbox="10.5 6.998 179 186.003" viewBox="10.5 6.998 179 186.003" height="200" width="200" xmlns="http://www.w3.org/2000/svg" data-type="color" role="presentation" aria-hidden="true"><defs><style>#comp-iu44e535 svg [data-color="1"] {fill: #66D1CA;}</style></defs>
    <g>
        <path d="M47.019 63.975c.934.067 4.709 1.111 5.773 1.818 1.063.707 3.038-1.049 3.342-1.434.304-.385-.152-1.636-.152-1.636.76-.132 3.038-.567 6.684 2.161 1.759 1.316 24.99 17.349 24.99 17.349l.987-8.106s-2.886-10-2.583-10.758c.304-.758 5.773-3.258 6.532-2.803s.228.909.228.909-4.642 1.437-5.165 2.424.228.909.836.833c.608-.076 4.388-1.818 4.511-1.591.123.227-4.207 2.374-4.131 3.081s.532 1.01 1.063 1.01-.228 1.742.684 1.894 3.038-3.485 3.19-3.864.684.152.684.152.38 1.591 0 2.576c-.38.985-1.768 3.248-1.644 4.011s2.935 14.778 3.391 17.657c.456 2.879.987 5.985 0 7.955-.987 1.97-5.545.379-5.545.379s-7.216-3.258-8.431-4.318c-1.215-1.061 4.552 8.712 4.552 8.712s51.483-1.591 54.088-.379c2.605 1.212 16.559 12.955 17.622 14.016s16.179 14.622 16.179 14.622 12.89-13.494 14.508-12.273c1.952 1.473-6.472 18.414-12.153 23.94-.455.443.898.673.684 1.288-1.747 5-3.658 6.072-4.178 6.212-2.81.758-6.38-3.409-6.38-3.409s-.501-.53-1.332-1.405c-3.691-3.887-13.899-14.583-15.759-15.943-2.279-1.667-7.216-6.894-8.659-7.349-1.443-.455-16.787-1.212-26.357-1.061s-24.914 1.742-24.914 1.742 8.887 18.637 8.735 21.895c-.152 3.258-6.38 10.303-6.38 10.303l-21.795 26.63s21.036 5.265 20.124 6.705c-.437.69-3.266 1.515-17.546 1.894s-12.377-1.943-12.377-1.943l-1.226-.18s-.753.987-1.513 1.139c-.76.152-8.114.313-8.19-1.278s2.038-6.98 2.038-6.98 24.882-33.507 25.37-35.759c.608-2.803-12.609-30.91-13.748-31.819-1.139-.909-11.166-11.894-16.635-19.016C41.55 86.855 39.575 81.4 39.575 81.4s-6.456 9.091-8.811 11.819c-2.355 2.727-6.153 8.485-6.532 9.318-.38.833.987 11.894 1.595 15.379.608 3.485 3.721 15.001 3.721 15.001l-3.062 1.494-3.166-1.343s-6.912-15-8.507-19.016-4.785-10.909-4.254-12.273c.532-1.364 7.672-13.258 12.001-19.319 4.33-6.061 11.394-15.303 12.381-15.682.684-.555 11.144-2.87 12.078-2.803z" fill="#FBCB0C" data-color="1"></path>
        <path d="M189.213 118.371c-1.618-1.221-14.508 12.273-14.508 12.273l-.036-.033c-.286 2.202-.948 4.844-2.166 7.76-1.181 2.826-3.461 5.772-5.386 7.957l.069.073s3.57 4.167 6.38 3.409c.52-.14 2.431-1.212 4.178-6.212.215-.614-1.139-.845-.684-1.288 5.681-5.525 14.104-22.466 12.153-23.939z" fill="#20167F" data-color="2"></path>
        <path d="M52.438 65.593s3.45 3.742 4.76 4.822c1.31 1.08 10.653 9.432 11.394 10.284.741.852 6.865 7.87 7.263 8.551.399.682-3.247-7.245-3.988-8.267s-7.32-10.711-8.574-12.131c-1.253-1.42-3.612-5.342-7.061-5.398-2.857-.047-3.584 1.451-3.75 1.967a1.271 1.271 0 0 0-.044.172l-.138-.067" fill="#FFFFFF" data-color="3"></path>
        <path d="M40.99 40.386c-.085-.142-.541-3.523 1.709-4.915s4.472-1.534 6.523-.909c.456-.597 2.009-1.648 3.981-1.449 1.972.199 2.257 2.017 2.257 2.017s4.244.64 4.444 3.687.712 3.018-6.238 8.927c.741 1.023-2.535 8.182-2.535 8.182s-3.817 2.813-6.608 1.648-2.393-3.352-2.393-3.352-2.421.511-3.048-1.875.627-3.409.627-3.409-2.193-1.647-2.193-3.465c-.001-1.819.597-4.264 3.474-5.087z" fill="#20167F" data-color="2"></path>
        <path d="M53.055 50.875l7.863 1.623s.369 2.22.324 3.693c-.052 1.712-.293 3.128-2.594 3.654-2.303.527-7.217-2.216-7.228-4.775-.01-2.558 1.635-4.195 1.635-4.195z" fill="#FFFFFF" data-color="3"></path>
        <path d="M49.027 56.88s.594-.698.679-.954.228-1.193 0-1.42-.94.17-1.681-.313c-.741-.483-2.848-1.847-2.734-3.352s2.027-1.42 2.267-1.364c.24.057 1.342.426 2.49 2.216.551-.212 1.595-1.05 2.051-1.932.456-.881.798-2.244.94-2.415s4.159-2.727 4.728-3.409 3.988 8.125 3.247 9.83c-1.856.592-4.607-.673-6.759-1.46.745 5.239 6.645 5.977 6.645 5.977s-.456 1.477-1.994 2.017c-1.538.54-1.994.398-2.279.625s-.406 3.232-.406 3.232-1.257 2.095-3.057 1.781c-.486-.085-.468-.411-2.473-1.031-2.476-.766-3.302-.883-3.302-.883 1.434-3.838 1.469-5.95 1.638-7.145z" fill="#DA6939" data-color="4"></path>
        <path d="M54.007 66.551c0-.587 2.019-.368 2.932-.237 0 0-.056-.263.159-.382.304-.168.499.023.499.023-.199-.512-.705-1.474-.2-1.552.836-.129 4.314 2.791 3.793 3.342-.403.426-1.257-.028-2.017-.284-.509-.171 0-.009-.228.374s-.911 0-.911 0 .987 1.899.608 2.277c-.381.379-4.635-2.85-4.635-3.561z" fill="#FBCB0C" data-color="1"></path>
        <path d="M70.774 181.226c-2.913.138-6.848.246-11.45.177-3.729-.056-5.985-.343-7.351-.682-.34.881-2.047 5.395-1.979 6.828.076 1.591 7.431 1.43 8.19 1.278.76-.152 1.513-1.139 1.513-1.139l1.226.18s-1.903 2.322 12.377 1.943c14.28-.379 17.109-1.204 17.546-1.894.887-1.398-18.953-6.409-20.072-6.691z" fill="#20167F" data-color="2"></path>
        <path d="M106.304 41.323s4.33-2.727 5.127-7.5.456-6.818 2.621-7.841c2.165-1.023 3.304 0 3.304 0s-.684-6.364 2.962-6.818c3.646-.455 6.267 3.636 6.039 6.932s.942-.982 3.19-.795c1.367.114 3.721.387 2.621 13.386-.57 6.728-4.352 18.173-15.723 19.531-3.138.375-1.63.449-6.324-2.008-.977-.511.117-4.723-1.75-5.081-10.84-2.079-9.626-9.244-9.359-10.374.686-2.069 1.417-3.193 3.988-3.296 3.819-.152 3.304 3.864 3.304 3.864z" fill="#EC3C2D" data-color="5"></path>
        <path d="M156.551 106.855s11.058 5.434 12.761 5.455c-1.443 1.136-14.432 14.243-17.622 18.94-3.19 4.697-6.76 10.758-10.178 14.243-3.342.682-5.11 4.538-5.241 5.227 0 2.121 1.595 2.5 1.595 2.5s2.657 14.623 5.391 15.078 1.749-19.017 1.749-19.017 16.255-16.061 18.99-19.091c2.734-3.03 14.128-14.622 15.951-17.879 1.367-2.046.911-2.879 0-4.849-.911-1.97-6.229-8.94-6.229-8.94l-39.954 6.212s-8.659 31.365-9.419 33.789c-.76 2.424-13.672 34.243-13.824 36.971-2.507 3.03-14.052 16.868-12.837 17.323 1.215 1.364 13.347-5.188 16.407-8.837.796-.949-.228 2.046 2.323 1.029.862-.344 1.243-.722 1.293-2.239.106-5.078-1.345-6.465-1.23-6.81 3.292-9.874 10.027-21.829 12.274-26.678 4.633-10 13.132-21.62 13.132-21.62l4.034-9.442 10.634-11.365z" fill="#FE7F94" data-color="6"></path>
        <clipPath id="8cc24e22-77df-4af0-9d9c-287aa9d3089a_comp-iu44e535"></clipPath>
        <path d="M101.111 189.358c-1.149-.076 4.026-5.218 4.539-5.218l2.743.9c.55-.001-5.21 4.454-7.282 4.318z" fill="#DA6939" clip-path="url(#8cc24e22-77df-4af0-9d9c-287aa9d3089a_comp-iu44e535)" data-color="4"></path>
        <path d="M141.511 157.69s2.62.227 3.133.227c0 0 .29 5.646-.854 5.682-2.431.076-2.255-5.379-2.279-5.909z" fill="#DA6939" clip-path="url(#8cc24e22-77df-4af0-9d9c-287aa9d3089a_comp-iu44e535)" data-color="4"></path>
        <path d="M145.157 154.194c-.278 1.003-.571 1.869-.76 2.057-.456.455-2.734-.303-3.494-.606-.586-.234-1.082-6.512-1.277-9.367-2.123 1.369-3.252 3.897-3.356 4.442 0 2.121 1.595 2.5 1.595 2.5s2.657 14.623 5.391 15.078c1.836.305 1.995-8.369 1.901-14.104z" fill="#DA6939" data-color="4"></path>
        <path d="M141.511 157.69s2.62.227 3.133.227c0 0 .29 5.646-.854 5.682-2.431.076-2.255-5.379-2.279-5.909z" fill="#FE7F94" data-color="6"></path>
        <path d="M114.014 180.191c-3.038 3.636-6.988 1.97-7.444 1.515-.186-.185.134-1.102.577-2.122-4.244 5.192-10.366 12.895-9.464 13.232 1.215 1.364 13.347-5.188 16.407-8.837.796-.949-.228 2.046 2.323 1.029.862-.344 1.243-.722 1.293-2.239.085-4.08-.834-5.776-1.139-6.465-.525 1.081-1.329 2.422-2.553 3.887z" fill="#DA6939" data-color="4"></path>
        <path d="M101.111 189.358c-1.149-.076 4.026-5.218 4.539-5.218l2.743.9c.55-.001-5.21 4.454-7.282 4.318z" fill="#FE7F94" data-color="6"></path>
        <path d="M137.409 22.573c-.608-2.614 1.025-7.955 1.139-8.523s4.216-4.091 4.671-4.432c.456-.341 3.418-2.727 3.76-2.614.342.114 1.139.909-1.253 2.5s2.279-.455 2.165.455c-.114.909-1.367 1.023-1.937 1.25-.57.227 1.886-.107 1.542.575-.344.682-2.34.562-2.91.903-.57.341-2.469 1.061-2.848 2.955-.12.6 2.279-1.477 2.848-1.591s1.823-.568 1.823-.114-2.621 2.955-3.19 3.523c-.57.568-1.709 1.932-1.823 2.386-.114.455-.114 1.932-.114 1.932 3.934 11.77 9.115 25.834 11.849 35.456 0 0 0 .455-1.253 1.023-1.253.568-16.179 5.341-16.179 5.341 4.449 4.049 9.077 7.368 12.989 12.5 0 0 14.622-7.273 28.826-7.727 1.519 1.212 3.19 7.387 3.076 11.137s-2.393 9.432-1.823 11.023 3.19 3.182 3.76 5.568c.57 2.386-.114 4.887-2.165 6.818-2.051 1.932-7.862 4.887-11.963 8.637-4.102 3.75-7.52 7.955-14.356 11.364-6.836 3.409-21.572 7.728-23.585 8.409-2.013.682-5.013 4.091-6.039 3.523-1.025-.568-.304-7.917 0-10.796.304-2.879 2.387-17.39 6.988-27.349 2.929-6.339 5.445-9.674 5.013-10.303-.649-.945-7.748-3.94-11.432-5.53-1.025.758-7.406 13.978-9.913 14.546-2.507.568-19.899-23.985-21.152-23.758s-2.774 1.485-3.572.007-4.216-7.955-3.418-8.409 5.265-2.134 5.887-1.78l1.899 1.079s2.127 5.437 2.203 6.573c.073 1.089 14.404 13.277 16.407 15.607.456-2.349.949-8.182 1.291-9.432s.911-5.227 1.139-5.796-2.393-6.25-2.962-6.25-.114 1.136-1.709 2.159-3.532.341-3.532.341l.911-7.008s-3.304 3.258-4.33 3.144c-1.025-.114-3.19-9.659-.57-12.387 0 0 2.957 1.957 9.685 2.121l.304 2.273s.723-2.134 2.431-1.136c.415.242 2.203.455.456 5.455-.195.559 3.19 5.303 4.102 5.455.422.07 4.482-4.924 6.229-5.606 2.734-1.136 16.597-2.993 18.154-4.47 1.026.337-6.531-28.111-7.519-31.027z" fill="#EC3C2D" data-color="5"></path>
        <path d="M121.001 77.189l-.002-2.037c-.001-.781-.649-1.141-1.255-1.089a1.286 1.286 0 0 0-1.333-.432c-.621-.149-1.383.212-1.466 1.059-.127 1.308-.049 2.589.177 3.882.183 1.046 1.464.993 2.011.328.255.029.522-.02.73-.141.23-.134.378-.325.462-.543.381-.13.677-.466.676-1.027z" fill="#FE7F94" data-color="6"></path>
        <path d="M132.105 61.624c.021-.763-.589-1.124-1.183-1.091a6.104 6.104 0 0 0-.268-.434c-.619-.921-1.716-.571-2.008.211-.04.018-.081.032-.121.055-.664.04-1.293.576-1.027 1.385.309.941.77 1.745 1.401 2.507.232.28.524.376.811.35.579.756 1.845.66 2.04-.364a1.09 1.09 0 0 0 .302-.703l.053-1.916z" fill="#FE7F94" data-color="6"></path>
        <path d="M139.937 79.152l-.055-.08a1.16 1.16 0 0 0-.434-.381 317.638 317.638 0 0 1-.526-.958 1.004 1.004 0 0 0-.59-.488 10.714 10.714 0 0 0-1.381-1.54c-.511-.467-1.361-.326-1.758.149-.86-.806-2.471.246-1.76 1.396a37.106 37.106 0 0 0 3.329 4.556c.732.858 1.937.049 1.927-.889.354.058.723-.018.987-.299l.083-.088c.325-.346.468-.959.178-1.378z" fill="#FE7F94" data-color="6"></path>
        <path d="M145.219 56.829c-.017-.521-.373-1.017-1.094-1.046-.256-.01-.491.02-.705.085a34.943 34.943 0 0 0-4.107.746c-1.059.262-1.113 1.962 0 2.192.459.095.916.167 1.372.22.115.593.626 1.096 1.368.856l3.001-.971c1.12-.365.979-1.668.165-2.082z" fill="#FE7F94" data-color="6"></path>
        <path d="M151.095 101.394c.393-.169.679-.52.626-.987.452-.27.705-.823.351-1.469a24.985 24.985 0 0 0-2.129-3.259c-.496-.645-1.579-.601-1.996-.055-.361-.191-.761-.248-1.2-.006-1.839 1.011-.214 4.813.431 6.122.16.324.41.493.684.547.632.965 1.504 1.731 2.504 2.317 1.022.6 2.063-.572 1.559-1.555-.282-.549-.554-1.103-.83-1.655z" fill="#FE7F94" data-color="6"></path>
        <path d="M162.329 76.416a21.523 21.523 0 0 1-4.062-.819 7.825 7.825 0 0 0-1.199-.392c-.727-.172-1.223.263-1.36.799-.819.003-1.313 1.039-.9 1.71.038.062.08.118.12.177-.722.37-.997 1.57-.107 2.015a6.89 6.89 0 0 0 1.73.62c.03.006.057.005.086.009a58.52 58.52 0 0 1 3.169 1.2c1.165.482 1.743-1.139 1.109-1.899-.309-.37-.689-.669-1.096-.939.294-.052.557-.22.742-.448.584.098 1.172.182 1.768.241 1.458.145 1.447-2.129 0-2.274z" fill="#FE7F94" data-color="6"></path>
        <path d="M180.131 76.703c-.158-.896-.585-1.655-1.216-2.304a1.05 1.05 0 0 0-.689-.335c-.597-.775-2.188-.459-2.053.669l.046.388-.735-.973c-.789-1.045-2.285-.428-2.083.876.013.082.031.161.051.24-.427.303-.646.844-.256 1.403a19.725 19.725 0 0 0 2.592 3.039c.619.588 1.367.343 1.718-.22.026-.002.052-.002.079-.005.778-.105 1.107-.646 1.211-1.342.735.151 1.481-.611 1.335-1.436z" fill="#FE7F94" data-color="6"></path>
        <path d="M171.453 100.311c-.148-1.381-.735-2.406-1.883-3.203a1.185 1.185 0 0 0-.274-.14c-.198-.272-.393-.545-.593-.815-.674-.911-1.331-1.472-2.509-1.27a.872.872 0 0 0-.4.185c-.83-.544-2.171.014-1.817 1.164.023.075.049.147.073.222-.658.272-1.103 1.187-.474 1.887a250.144 250.144 0 0 1 3.605 4.098c.669.777 1.922.084 1.981-.757.36.04.733-.089 1.004-.316.66.107 1.375-.227 1.287-1.055z" fill="#FE7F94" data-color="6"></path>
        <path d="M138.619 123.683c-.109-.819-1.012-1.389-1.68-1.028-.467-.476-1.368-.583-1.79.055-.557-.456-1.599-.401-1.903.502a49.43 49.43 0 0 0-.953 3.173c-.309 1.169 1.061 1.796 1.904 1.106.075-.062.141-.132.215-.195.379.477 1.068.653 1.636.103.242-.235.475-.478.698-.729.113.56.486 1.012 1.116 1.019.553.006 1.22-.528 1.139-1.136l-.382-2.87z" fill="#FE7F94" data-color="6"></path>
        <path d="M130.701 101.4l.103-.172c.1.44.522.714.976.774.374.99 2.155.839 2.209-.45l.158-3.767c.027-.652-.493-1.057-1.046-1.107-.193-.564-.773-.889-1.307-.798a55.538 55.538 0 0 0-2.442 5.998c.49.121 1.076-.025 1.349-.478z" fill="#FE7F94" data-color="6"></path>
        <path d="M169.423 70.129c.401-.157.641-.557.681-.97a73.804 73.804 0 0 0-7.161 1.631c.037.669.569 1.289 1.372.994.178-.065.358-.123.538-.184l3.868.466c1.153.139 1.379-1.266.702-1.937z" fill="#FE7F94" data-color="6"></path>
        <path d="M144.929 53.596a1.371 1.371 0 0 1-.239.174c2.517.822 5.874 1.905 8.195 2.602-2.791-9.587-7.784-23.172-11.602-34.596 0 0 0-1.477.114-1.932.114-.455 1.253-1.818 1.823-2.386.57-.568 3.19-3.068 3.19-3.523 0-.455-1.253 0-1.823.114-.57.114-2.969 2.191-2.848 1.591.38-1.894 2.279-2.614 2.848-2.955.57-.341 2.566-.221 2.91-.903.344-.682-2.112-.347-1.542-.575.57-.227 1.823-.341 1.937-1.25s-4.557 1.136-2.165-.455c2.393-1.591 1.595-2.386 1.253-2.5s-3.304 2.273-3.76 2.614c-.456.341-4.558 3.864-4.671 4.432-.114.568-1.747 5.909-1.139 8.523.987 2.918 8.544 31.366 7.519 31.025z" fill="#E6916D" data-color="7"></path>
        <path d="M124.113 60.193c-1.642 1.616-3.304 3.523-3.566 3.479-.911-.152-4.297-4.896-4.102-5.455 1.747-5-.041-5.212-.456-5.455-1.708-.998-2.431 1.136-2.431 1.136l-.304-2.273c-6.727-.164-9.685-2.121-9.685-2.121-2.621 2.727-.456 12.273.57 12.387 1.025.114 4.33-3.144 4.33-3.144l-.911 7.008s1.937.682 3.532-.341c1.595-1.023 1.139-2.159 1.709-2.159.57 0 3.19 5.682 2.962 6.25-.228.568-.798 4.546-1.139 5.796-.015.053-.029.118-.045.187l.102.097s8.09-.227 10.482-1.477c2.277-1.189.324-11.632-1.048-13.915z" fill="#E6916D" data-color="7"></path>
        <path d="M113.417 84.249a18.31 18.31 0 0 1-.087.485c-2.003-2.329-16.334-14.518-16.407-15.607-.076-1.136-2.203-6.573-2.203-6.573l-1.899-1.079c-.622-.353-5.089 1.326-5.887 1.78-.798.455 2.621 6.932 3.418 8.409.798 1.477 2.319.22 3.572-.007 1.075-.195 14.012 17.824 19.26 22.611 2.902-2.801.788-9.387.468-9.706a6.125 6.125 0 0 1-.235-.313z" fill="#E6916D" data-color="7"></path>
        <path d="M29.548 132.917c-1.681.196-4.375.333-6.228.151.008.658.065 3.296.456 4.334.456 1.212.987 2.273 2.051 3.409 1.063 1.136 3.57 5.227 4.33 5.041.76-.186.38-1.026-.304-3.223-.684-2.197-1.139-3.03-1.139-3.03s2.583 1.667 4.557 4.167c1.139 4.394 2.127 6.061 3.418 6.667 1.291.606.532-1.97.987-.985.456.985 1.519.985 1.823.455.304-.53-.684-6.137-.911-6.743-.179-.475-6.697-7.692-9.04-10.243z" fill="#DA6939" data-color="4"></path>
        <path d="M86.061 63.369c-.304.758 2.583 10.758 2.583 10.758l-.058.474c.856.143 1.708.214 2.337.283.591.065 1.551-.039 2.45-.179A222.306 222.306 0 0 1 92.849 72c-.125-.762 1.264-3.026 1.644-4.011.38-.985 0-2.576 0-2.576s-.532-.53-.684-.152c-.152.379-2.279 4.015-3.19 3.864-.911-.152-.152-1.894-.684-1.894s-.987-.303-1.063-1.01c-.076-.707 4.254-2.854 4.131-3.081s-3.903 1.515-4.511 1.591c-.608.076-1.359.154-.836-.833.523-.988 5.165-2.424 5.165-2.424s.532-.455-.228-.909c-.759-.453-6.228 2.047-6.532 2.804z" fill="#DA6939" data-color="4"></path>
        <path d="M103.969 62.687c-.416.128-1.395-.881-.825-1.335.57-.455.597-.142 1.338-.313.741-.17 2.466-.897 2.466-.897s-2.564 2.418-2.979 2.545z" fill="#EC3C2D" data-color="5"></path>
        <path d="M106.646 65.358s-.158-1.573 1.323-2.766c-.114 1.932.158 3.505.158 3.505s-.57.284-1.082 0-.399-.739-.399-.739z" fill="#EC3C2D" data-color="5"></path>
    </g>
</svg>