<svg preserveAspectRatio="xMidYMid meet" data-bbox="4 13.501 192.001 172.999" viewBox="4 13.501 192.001 172.999" height="200" width="200" xmlns="http://www.w3.org/2000/svg" data-type="color" role="presentation" aria-hidden="true"><defs><style>#comp-iu44hx4n svg [data-color="3"] {fill: #66D1CA;}</style></defs>
    <g>
        <path d="M124.166 50.97s3.589.238 4.418-.683c.828-.921 5.244-6.91 5.06-7.739-.184-.829-1.196-.264-2.3-1.376s-1.104-3.415-.828-3.876 1.38-3.409 2.668-4.238c1.288-.829 5.437-3.685 8.741-3.317 3.304.368 6.535 1.29 6.535 1.29l-3.406 14.373-3.036-.108-1.807-.615s-1.414.263-2.242 1c-.828.737-3.034 4.699-2.713 5.528.321.829 4.829 1.566 4.829 1.566s-2.576 2.58-5.428 4.422-6.164 3.685-6.164 3.685-3.775-6.964-4.327-9.912z" fill="#E6916D" data-color="1"></path>
        <path d="M88.088 18.876c3.128-.553 5.416.354 6.428.722 1.012.369 1.428 3.257 1.428 3.257s6.945 1.932 13.008 7.077a1473.44 1473.44 0 0 0 9.118 7.639l-6.198 3.592s-7.273-7.391-8.569-8.488c-2.065-1.749-9.063-6.904-10.259-6.904s-5.152-1.29-6.348-1.106c-1.196.184 1.392-5.789 1.392-5.789z" fill="#E6916D" data-color="1"></path>
        <path d="M159.657 68.89s6.081 5.481 10.037 8.245 14.62 11.288 15.08 11.841.364 2.619.824 3.724c.46 1.106 4.052 3.186 4.421 2.633.583-.876-.438-1.235-1.104-1.843-.9-.822-1.656-1.751-1.656-1.751s2.46.423 3.438 1.119c.887.631 3.371 4.501 3.923 4.317.552-.184-1.564-4.33-1.564-4.33l-3.312-2.672 3.844 1.751s1.216 3.04 2.044 2.948c.863-.096-.736-3.409-1.104-3.962-.368-.553-4.416-2.027-4.14-2.119.276-.092 2.372.691 3.2 1.013.828.322 1.86 1.658 2.32 1.751.46.092-.92-2.303-1.38-2.764-.46-.461-2.015-.738-3.266-1.281-.778-.338-3.911-1.575-4.739-1.943s-11.317-10.596-13.433-13.175c-2.116-2.58-7.176-7.371-7.176-7.371l-6.257 3.869z" fill="#E6916D" data-color="1"></path>
        <path d="M82.555 21.44s2.576-2.948 4.416-3.501c1.84-.553 6.808.369 7.545 1.658.736 1.29-2.208-.383-4.232.269s-2.392 2.495-.368 2.679c1.283.117 6.472 1.829 4.784 2.241-1.688.412-6.92 1.169-9.128.8-2.208-.368-3.017-4.146-3.017-4.146z" fill="#DA6939" data-color="2"></path>
        <path d="M41.597 46.452S52.028 31.359 57.18 28.259s10.748-5.616 16.174-6.818c4.134-.916 9.201 0 9.201 0s3.017 2.977 3.017 4.147c0 0-14.431 5.261-18.391 10.032-5.252 6.329-11.676 22.307-14.068 23.044S41.597 46.452 41.597 46.452z" fill="#FBCB0C" data-color="3"></path>
        <path d="M51.632 31.387l5.364 3.546s.148.903 0 2.064-.525 2.438-.525 2.438-7.35 3.462-7.543-1.761c-.193-5.223.72-6.826.72-6.826l1.984.539z" fill="#FFFFFF" data-color="4"></path>
        <path d="M38.293 19.743c-.072-.15-.217-3.568 2.148-4.754 2.366-1.186 4.589-1.125 6.573-.314.508-.554 2.149-1.463 4.093-1.085 1.944.378 2.062 2.22 2.062 2.22s4.164 1.026 4.085 4.087c-.079 3.061.433 3.08-7.02 8.35.644 1.089-3.268 7.942-3.268 7.942s-4.054 2.462-6.725 1.044c-2.671-1.418-2.075-3.567-2.075-3.567s-2.456.29-2.861-2.151.934-3.348.934-3.348-2.032-1.845-1.866-3.661.982-4.202 3.92-4.763z" fill="#20167F" data-color="5"></path>
        <path d="M44.785 36.951s.654-.644.763-.891c.108-.248.335-1.171.129-1.419-.206-.248-.951.085-1.644-.465s-2.666-2.104-2.415-3.598 2.146-1.234 2.38-1.156 1.296.548 2.275 2.44c.568-.162 1.682-.904 2.217-1.743.534-.838.998-2.169 1.155-2.327s4.386-2.346 5.015-2.975 3.227 8.48 2.335 10.115c-1.9.422-4.523-1.092-6.592-2.074.263 5.302 6.066 6.576 6.066 6.576s-.588 1.434-2.168 1.833-2.324.417-2.628.618-1.353 3.932-1.353 3.932-.483 1.036-2.245.559c-.476-.129-1.981-1.09-2.367-1.255-2.382-1.018-3.748-.357-3.748-.357 1.778-3.702 2.548-6.634 2.825-7.813z" fill="#DA6939" data-color="2"></path>
        <path d="M34.362 41.342c.909.218 7.992 2.559 9.208 2.948 1.874.6 3.565 1.711 3.651 2.053.235.934 2.143 1.416 2.143 1.416.759-.132 5.646-2.273 6.678 2.167 4.26 18.319 9.753 39.777 9.753 39.777S95.983 70.447 98.89 69.478c2.908-.969 5.691.004 7.753 4.077 8.754 17.288.894 63.303 0 65.689-.254.529 14.936 17.4 12.987 19.135-3.489 3.106-21.257-14.471-21.903-13.976-.421.323-.957 1.153-1.331 1.615-1.312.534-2.171-.256-3.321-1.032-1.521-1.027-.789-4.659-.789-4.659s2.689-39.35 1.37-41.538c-1.318-2.188-26.361 9.511-26.361 9.511s5.672 19.797 7.176 25.545c.245.936-.038 3.686-.619 7.36-1.932 12.233-7.158 34.723-7.158 34.723s21.016 5.282 20.106 6.726c-.436.692-3.263 1.52-17.53 1.9s-12.365-1.95-12.365-1.95l-1.225-.18s-.752.99-1.511 1.142c-.759.152-8.107.314-8.183-1.282-.076-1.596 2.036-7.001 2.036-7.001s6.825-36.414 7.313-38.674c.607-2.812-13.881-29.027-14.721-30.22-4.278-6.081-6.816-12.608-7.729-21.56-.92-9.029-4.232-17.177-4.232-17.177s-4.95 7.937-6.992 10.912c-2.024 2.948-10.305 33.537-10.305 33.537l-6.565-1.891c-.346-5.829 4.364-32.157 4.922-33.076.761-1.254 1.296-5.09 3.897-8.887 4.01-5.855 12.767-22.697 13.754-23.077.683-.557 2.392-4.934 6.998-3.828z" fill="#FBCB0C" data-color="3"></path>
        <path d="M99.472 140.327c-2.552-.555-5.165-2.001-6.972-3.245-.13 2.022-.214 3.245-.214 3.245s-.732 3.631.789 4.659c1.149.776 2.009 1.566 3.321 1.032.374-.462.91-1.292 1.331-1.615.647-.495 18.414 17.081 21.903 13.976 1.92-1.709-12.796-18.111-12.988-19.1-1.721.778-4.373 1.657-7.17 1.048z" fill="#20167F" data-color="5"></path>
        <path d="M66.694 175.928s-12.765.093-19.059.378c-.605 1.647-1.706 4.818-1.65 5.978.076 1.596 7.424 1.434 8.183 1.282.759-.152 1.511-1.142 1.511-1.142l1.225.18s-1.902 2.329 12.365 1.949 17.094-1.208 17.53-1.9c.912-1.443-20.105-6.725-20.105-6.725z" fill="#20167F" data-color="5"></path>
        <path d="M18.118 122.3c1.067-1.282-1.156-6.743-1.647-7.35-.491-.608-5.117-2.849-5.117-2.849s-5.859-1.845-6.565-1.891C4.084 110.165 4 123.016 4 123.016s.115 3.689.772 5.571c1.757 5.029 2.592 5.003 3.205 3.869.313-.579-.768-3.939-1.159-5.126-.391-1.187.122-4.002.122-4.002s.217 2.552 1.037 4.196c.97 1.943 3.103 4.235 4.056 3.965.954-.27-2.213-4.393-2.264-5.163-.074-1.115.139-4.025.139-4.025s1.18 2.445 1.738 3.192c.869 1.161 1.738 4.66 2.704 3.974s-1.159-5.755-1.545-7.359c-.193-.802-.301-5.658-.097-5.61 2.6.611 4.445 6.963 5.41 5.802z" fill="#DA6939" data-color="2"></path>
        <path d="M45.71 45.122s4.244 6.626 6.115 9.187c2.897 3.965 7.92 13.83 8.306 15.861.386 2.031-2.877-12.447-5.698-18.666-.953-2.1-4.111-5.686-4.111-5.686s-.169.379-1.638.468c-.929.057-2.974-1.164-2.974-1.164z" fill="#FFFFFF" data-color="4"></path>
        <path d="M48.486 47.36c.22-.546 2.009.414 2.805.878 0 0 .046-.266.291-.296.345-.043.454.208.454.208.008-.55-.101-1.635.397-1.518.822.193 2.95 4.211 2.26 4.529-.533.245-1.154-.497-1.762-1.02-.407-.35.004-.009-.351.263-.355.271-.844-.341-.844-.341s.203 2.136-.291 2.346c-.495.208-3.225-4.388-2.959-5.049z" fill="#FBCB0C" data-color="3"></path>
        <path d="M148.767 94.752c1.731 3.16 11.057 24.63 11.057 24.63-.155 2.429-.946 4.841-1.686 6.641-.74 1.8-10.796 35.058-10.796 35.058s-.566 5.05-.6 9.131c-.034 4.081 1.124 14.708-.65 14.729-1.773.021-8.896-13.944-8.438-16.215l-1.123.389c-1.018-.861-.686-2.807-.409-3.273.277-.466 5.196-5.597 5.196-5.597s1.153-7.22 3.483-17.922c1.093-12.831 5.093-19.595 5.093-19.595l-7.369-16.016 6.242-11.96z" fill="#FE7F94" data-color="6"></path>
        <path d="M141.635 34.54s-1.267.111-6.296-1.176c-2.407-.616-2.174-.689-2.174-.689s-1.524 1.581-1.694 2.596 1.511.886 2.561 1.319c1.05.433 1.672.706 2.446.597 2.73-.382 5.157-2.647 5.157-2.647z" fill="#FFFFFF" data-color="4"></path>
        <path d="M120.888 97.175c-3.11 1.814-9.016 18.934-9.016 18.934-1.118 2.161-1.376 11.066-1.668 12.991-.292 1.925-3.54 37.622-5.612 41.137-2.071 3.515-13.679 15.257-12.171 16.19 1.509.934 14.8-7.357 15.577-9.539l.763.913c1.315-.212 2.033-2.051 2.035-2.594l.018-4.333s3.253-18.567 7.67-29.036c3.255-8.585 4.138-20.195 4.138-20.195l8.835-16.037-10.569-8.431z" fill="#FE7F94" data-color="6"></path>
        <path d="M134.582 31.812c1.081.11 1.116 1.192 1.116 1.192s1.274-.699 2.38-.181c1.206.564 1.955 1.477 1.809 1.54 0 0-7.187-1.256-7.099-1.928.106-.804 1.412-.662 1.794-.623z" fill="#EC3C2D" data-color="7"></path>
        <path d="M131.507 35.019c-.825-.094-.729 1.69.786 2.308 1.515.618 4.185-.133 4.185-.133.243.122-4.117-2.077-4.971-2.175z" fill="#EC3C2D" data-color="7"></path>
        <path d="M122.026 79.117S99.208 93.122 97.184 80.13s-17.573 11.148-9.109 21.099 20.425 10.688 26.774 19.901c6.348 9.213 18.309 10.314 23.83 8.335 5.52-1.978 21.53-8.888 20.977-14.416s-19.275-36.946-19.275-36.946l-18.355 1.014z" fill="#EC3C2D" data-color="7"></path>
        <path d="M119.212 54.42c.341 1.504.491 3.524.158 4.148-3.186 5.869 2.424 10.564 3.252 10.749s-.595 9.639-.595 9.639-.46 2.672 6.992 2.396c7.453-.276 11.685-2.746 11.685-2.746s1.472-14.022 1.564-15.681c.092-1.658 12.513 2.672 13.801 3.409 1.288.737 3.899 2.834 3.899 2.834l5.946-4.308s-8.833-5.528-11.041-6.449c-2.208-.921-11.501-4.791-12.789-5.252-1.288-.461-2.024-.553-2.024-.553l-11.593 8.108-2.286-9.423s-2.591-4.668-4.799-8.29c-1.422-2.333-3.312-5.429-3.312-5.429s-6.316 1.152-6.198 3.592c4.876 7.663 7.34 13.256 7.34 13.256z" fill="#EC3C2D" data-color="7"></path>
        <path d="M125.01 52.375l.081-.227c.352-.984-.397-2.118-1.349-2.38-1.071-.295-2.024.364-2.377 1.351l-1.029 2.879c-.266.743.129 1.643.748 2.093.242.493.684.891 1.222 1.039 1.032.284 2.072-.348 2.377-1.351l.559-1.839c.186-.613.064-1.153-.232-1.565z" fill="#FE7F94" data-color="6"></path>
        <path d="M132.798 72.078a2.623 2.623 0 0 0-.581-.873l-.26-.94c-.601-2.169-3.689-1.546-3.797.38-.875.293-1.544 1.119-1.19 2.261l1.386 4.472c.538 1.735 3.295 1.945 3.726 0 .15-.675.25-1.35.309-2.025.206-.209.373-.471.473-.788.258-.825.268-1.683-.066-2.487z" fill="#FE7F94" data-color="6"></path>
        <path d="M142.492 57.903a6.96 6.96 0 0 0-1.108-2.375c-.474-.643-1.091-1.036-1.925-.924-.678.091-1.501.642-1.606 1.386l-.11.776a2.68 2.68 0 0 0-.165.682l-.247 2.245c-.105.953.816 1.785 1.675 1.9.825.111 1.914-.402 2.102-1.303l.034-.007c1.02-.281 1.614-1.366 1.35-2.38z" fill="#FE7F94" data-color="6"></path>
        <path d="M154.586 60.354c-.071-.767-.243-1.475-.652-2.136-.416-.672-1.25-1.067-2.021-.934a1.93 1.93 0 0 0-1.396-.037c-.538-.262-1.161-.297-1.73.07-.798.515-1.34 1.78-.693 2.647l1.283 1.719c.501.671 1.308 1.172 2.182.889.247-.08.461-.2.647-.345.608.08 1.111.039 1.619-.354.444-.343.816-.927.761-1.519z" fill="#FE7F94" data-color="6"></path>
        <path d="M116.132 85.814c-.12-.439-.798-2.836-1.137-3.079-2.934 1.08-2.811 1.154-3.831 1.499-.928.313-1.394.46-1.875.581-.166.042.414.445.531.564l-.354.408c-1.25 1.442-.065 3.702 1.88 3.234l3.437-.827c1.014-.244 1.619-1.396 1.349-2.38z" fill="#FE7F94" data-color="6"></path>
        <path d="M96.583 97.042c.054-.879-.527-1.801-1.419-2.063-.836-.246-1.726-.347-2.592-.246-1 .117-1.983.806-1.932 1.935.016.366.149.756.366 1.091-.006.072-.01.145-.008.218a1.663 1.663 0 0 0-.278 1.003c.01.222.055.435.128.635.098.68.529 1.294 1.354 1.486 1.253.291 2.536.281 3.765-.123a2.135 2.135 0 0 0 1.338-1.312c.106-.196.18-.418.214-.665.098-.731-.268-1.587-.936-1.959z" fill="#FE7F94" data-color="6"></path>
        <path d="M123.113 100.328a1.831 1.831 0 0 0-.68-.683 1.943 1.943 0 0 0-.953-.247 2.242 2.242 0 0 0-.209-.072 1.861 1.861 0 0 0-.502-.433c-.993-.582-2.009-.14-2.644.694a14.95 14.95 0 0 0-1.447 2.312 1.924 1.924 0 0 0-.191.627l-.143.257c-.908 1.629.625 3.143 2.187 2.801.016.956.862 1.658 1.768 1.787.828.439 1.948.375 2.599-.636a11.102 11.102 0 0 0 1.613-4.08c.221-1.249-.493-2.113-1.398-2.327z" fill="#FE7F94" data-color="6"></path>
        <path d="M145.387 90.887c.126-.333.155-.721.042-1.156-.243-.933-.796-1.634-1.613-2.136-.82-.504-1.671-.289-2.232.252a1.833 1.833 0 0 0-.573.213l-.027.019c-1.307-.434-3.066.571-2.55 2.281.196.649.422 1.289.667 1.92a9.286 9.286 0 0 0 1.015 2.31c.758 1.231 2.113 1.131 2.917.402.027-.006.054-.01.081-.018.859-.236 1.321-.948 1.382-1.748.61-.324 1.058-.92.985-1.658a12.01 12.01 0 0 0-.094-.681z" fill="#FE7F94" data-color="6"></path>
        <path d="M143.502 119.138l-.799-.754c-.534-.504-1.113-.651-1.63-.556-.6-.742-1.546-.766-2.299-.351-.989-.564-2.485.073-2.866 1.201a15.019 15.019 0 0 0-.758 5.852c.127 1.817 2.306 2.477 3.36 1.307.689.113 1.43-.11 1.862-.671.296.178.635.285.984.285.92 0 1.534-.622 1.863-1.42a5.899 5.899 0 0 0 .443-2.431c.546-.687.668-1.68-.16-2.462z" fill="#FE7F94" data-color="6"></path>
        <path d="M155.824 108.458c-.216-2.269-.806-6.578-3.538-7.125-.589-.236-1.289-.115-1.828.241-.999.533-1.626 1.695-1.572 2.853.073 1.562 1.071 2.978 2.005 4.156.227.286.582.452.959.517.215.248.437.492.676.726 1.105 1.087 3.463.371 3.298-1.368z" fill="#FE7F94" data-color="6"></path>
        <path d="M142.636 41.163s2.699-1.948 3.389-2.556c1.119-.675.535-4.87.199-5.538-1.696-3.362-7.616-5.473-8.282-7.944-.707-2.624 2.456-5.032 8.19-2.992 4.65 1.655 5.888 10.362 5.888 10.362s7.867.473 13.249 8.667c5.382 8.194 7.038 15.795 5.52 18.421s-3.726 1.52-4.002 1.52c-.276 0 1.932 4.975-1.242 7.463s-6.348-.691-6.9-2.764c-.552-2.073-1.242 1.244-3.726-1.244s-3.711-9.674-6.548-11.333-9.047-9.638-9.047-9.638 3.726 2.109 4.968 0-1.656-2.424-1.656-2.424z" fill="#EC3C2D" data-color="7"></path>
        <path d="M110.81 171.898c-2.3 1.537-5.969 5.681-6.29 5.038-.432-.864-3.839-1.731-3.839-1.731-4.019 4.701-9.309 10.573-8.26 11.222 1.509.934 14.8-7.357 15.577-9.539l.763.913c1.315-.213 2.033-2.051 2.035-2.594l.014-3.309zm-12.971 9.171c-1.878.306 1.161-3.883 1.672-4.194.306-.186 2.887 1.06 2.957 1.438.001.006-2.751 2.449-4.629 2.756z" fill="#DA6939" data-color="2"></path>
        <path d="M146.978 165.108l-.027.38.028-.383-.001.003z" fill="#DA6939" data-color="2"></path>
        <path d="M146.947 165.531c-.173 2.121-.639 4.419-.639 4.419s-2.934-.711-5.369-.25c-.002.106-1.317-3.706-2.153-6.791-1.252 1.328-2.526 2.702-2.663 2.933-.277.466-.609 2.412.409 3.273l1.123-.389c-.458 2.271 6.664 16.236 8.438 16.214 1.773-.021.615-10.648.65-14.729.012-1.529.1-3.194.204-4.68zm-1.137 12.99c-.958-.08-4.673-6.552-4.558-6.874.177-.495 4.988-.429 5.04.227.036.465.767 6.752-.482 6.647z" fill="#DA6939" data-color="2"></path>
    </g>
</svg>